**ABCDEFGHIJKLMNOPQRSTUVWXYZabcdefghijklmnopqrstuvwxyz**************************
**PARASOLID !"#$%&'()*+,-./:;<=>?@[\]^_`{|}~0123456789**************************
**PART1;
MC=AMD64;
MC_MODEL=Intel64 Family 6 Model 60 Stepping 3, GenuineIntel;
MC_ID=unknown;
OS=Windows_NT;
OS_RELEASE=unknown;
FRU=Parasolid Version 31.0, build 264, 12-10-2018;
APPL=SOLIDWORKS 2019-2019057;
SITE=;
USER=unknown;
FORMAT=text;
GUISE=transmit;
KEY=Avi_Para_tubeANSYSTEST;
FILE=Avi_Para_tubeANSYSTEST.x_t;
DATE=Wed Dec 11 10:15:29 2019;
**PART2;
SCH=SCH_3100264_31001;
USFLD_SIZE=0;
**PART3;
**END_OF_HEADER*****************************************************************
T51 : TRANSMIT FILE created by modeller version 310026423 SCH_3100264_31001_1300
6215 0 12 34 CCCCCCI4 mesh1006 0 I8 polyline1008 0 CCCCCCCDI5 owner1040 0 CCCCCC
I13 boundary_mesh1006 0 I17 boundary_polyline1008 0 CCCA16 index_map_offset0 0 1
 dA9 index_map82 0 A17 node_id_index_map82 0 A20 schema_embedding_map82 0 A5 chi
ld12 0 A14 lowest_node_id0 0 1 dA16 mesh_offset_data206 0 Z1 1012 2 3 0 0 0 0 0
 0 1e3 1e-8 0 4 0 1 0 1 1 5 6 7 0 0 0 8 9 0 0 0 0 0 0 0 0 81 255 2 2 996 10 1 11
 0 0 0 0 12 70 11 CI9 list_type0 0 1 uI10 notransmit0 0 1 lCCCDCCDI12 finger_ind
ex0 0 1 dI12 finger_block1012 0 CZ3 0 4 T1 0 0 9 20 1 13 13 13 255 5 62 0 1 0 14
 0 0 15 0 50 255 6 115 0 14 16 0 0 +-1.238910735908368 .05715 0 -1 0 0 0 0 1 38
 12 CCCCCCCCCCCA17 intersection_data204 0 Z7 310 0 17 18 0 0 +19 20 21 22 22 23
 19 8 CCCCCCCA5 owner12 0 Z8 66 0 1 15 0 24 V0 16 255 9 100 0 ?25 0 26 27 0 0 1
 17 255 25 0 28 25 25 0 29 9 0 0 +16 26 95 0 ?30 9 31 32 0 0 1 31 255 27 123 0 9
 32 33 0 +-1.238910735908368 -12490009027033e-29 0 -1 0 0 0 0 1 .05993638 31 32
 122 0 26 34 27 0 +-2.24655663590837 -12490009027033e-29 0 -1 0 0 0 0 1 .0599363
8 38 33 190 0 35 27 36 0 +19 37 38 39 39 40 16 35 213 0 ?41 42 43 33 0 0 1 38 36
 274 0 44 33 45 0 +19 46 47 48 48 49 51 255 19 108 0 50 37 51 52 +-2.24655663590
837 -12490009027033e-29 0 -1 0 0 .05715 0 0 1 51 37 253 0 53 46 19 54 +-1.673910
73590837 0 -.03993638 0 0 -1 .001422399999999944 -1 0 0 40 255 20 38 0 1 20 8021
58512186309e-19 .3374622193758365 ??-1.67533313590837 0 -.05715 -1.6752529824661
25 .000470739777575493 -.057148061244996 -1.675021571709105 .000888406204281082
 -.0571430943720778 -1.67466490961284 .00120600322697729 -.0571372737905522 -1.6
74223152845825 .00138766617642338 -.0571331504696075 -1.673746250343055 .0014128
574800042 -.0571325330590304 -1.67328799456899 .001278833446633126 -.05713569011
58617 -1.672899880764845 .00100069657679654 -.0571412382291563 -1.67262562171087
 .000609674716051238 -.0571467479104508 -1.67249625538956 .0001498886984336698 -
.05714980344129 -1.67252635839342 -.00032668127602756 -.057149066303343 -1.67271
2444698155 -.000766368015727681 -.0571448613618449 -1.673033608500755 -.00111976
3042262734 -.057139028962078 -1.673453741200275 -.001346988343222216 -.057134123
9751099 -1.673925369455755 -.001422324723574282 -.0571322981542027 -1.6743952244
23295 -.001337345370090954 -.0571343505026626 -1.674810468566305 -.0011016818525
49984 -.0571393804402512 -1.6751243995347 -.000741783231220884 -.057145185778312
8 -1.675301528793295 -.000298189388209784 -.0571492220689727 -1.67533313590837 -
224118778160714e-31 -.05715 41 3 CI8 term_use0 0 1 cCZ1 39 H?-1.67533313590837 -
224118778160714e-31 -.05715 204 2 17 INTERSECTION_DATA17 Intersection data7 uv_t
ype0 0 1 u6 values0 1 1 fT80 40 4 3.14159265358979 -.5712235 0 .01721362 3.13335
5643952545 -.571303653442244 .33730751929812 .0172116812449959 3.126046862005305
 -.571535064199265 .67459687000248 .0172067143720778 3.120488668412455 -.5718917
26295526 1.01194561213706 .0172008937905521 3.117309144094055 -.572333483062542
 1.349350160831346 .0171967704696074 3.11686821900798 -.572810385565312 1.686695
07949831 .0171961530590303 3.119213997531345 -.57326864133938 2.023958003466645
 .0171993101158616 3.12408175736105 -.573656755143523 2.361244561868475 .0172048
582291562 3.130924477199295 -.573931014197497 2.698623470697795 .017210367910450
7 3.138969926200925 -.574060380518806 3.03601932869009 .01721342344128995 3.1473
088925243 -.574030277514948 3.373330297075255 .01721268630334295 3.1550028195716
3 -.573844191210211 3.71058705656153 .0172084813618448 3.16118731152665 -.573523
027407611 4.047904821221955 .0172026489620779 3.165164186158095 -.57310289470809
1 4.38530366204785 .0171977439751098 3.166482795212835 -.572631266452611 4.72267
708889182 .0171959181542026 3.164995408668895 -.572161411485073 5.05995822391011
 .0171979705026625 3.160870870483125 -.571746167342061 5.39722428143347 .0172030
0044025115 3.154572602160005 -.571432236373669 5.73457597342692 .017208805778312
7 3.14681033935026 -.571255107115075 6.07198037535423 .01721284206897265 3.14159
265358979 -.5712235 6.28318530717957 .01721362 14 255 53 227 55 ?56 50 57 5 37 -
0 0 56 50 24 51 46 733 0 56 58 37 59 +-1.67391073590837 -.0282392851140429 -.028
2392851140428 0 -.707106781186549 -.707106781186546 .001422399999999944 0 .70710
6781186546 -.707106781186549 141 255 54 33 60 60 37 141 60 61 54 54 37 38 61 256
 0 42 62 63 0 +16 37 64 65 65 66 16 42 214 0 ?67 68 35 61 0 0 1 38 62 754 0 43 6
9 61 0 +16 20 70 71 71 72 31 63 116 0 68 61 73 0 +-1.238910735908368 -1249000902
7033e-29 0 -1 0 0 0 0 1 .05715 51 16 114 0 74 75 6 76 --2.24655663590837 -124900
09027033e-29 0 -1 0 0 .05993638 0 0 1 40 20 64 0 1 20 80212812566068e-18 .337453
7587563395 ??-1.67533313590837 -12490009027033e-29 -.05993638 -1.67525297983662
 -.00047074727516322 -.0599345313196602 -1.67502156031865 -.000888420446367052 -
.0599297952325459 -1.67466489192322 -.001206014288997368 -.0599242453188953 -1.6
7422313696819 -.00138766975099386 -.0599203139191258 -1.67374623108815 -.0014128
55238205332 -.0599197253630245 -1.67328796481688 -.001278818958103876 -.05992273
58318761 -1.672899849983785 -.001000665482305636 -.0599280261321607 -1.672625603
501765 -.000609636332169568 -.0599332794951762 -1.67249625127887 -.0001498499012
558268 -.059936192676141 -1.67252636907461 .0003267265364009105 -.05993548946387
96 -1.67271247756649 .000766419406144995 -.0599314796146257 -1.67303366175083 .0
01119804751809976 -.0599259183060404 -1.673453801615895 .001347008839006102 -.05
99212417652709 -1.673925432666795 .001422324071824582 -.0599195013475506 -1.6743
95294522445 .00133731997275327 -.0599214587839355 -1.67481053662296 .00110162626
785288 -.0599262552398394 -1.67512444653599 .000741706324903463 -.05993179055586
45 -1.67530154672763 .00029810572793245 -.0599356386508009 -1.67533313590837 -11
8979865071961e-30 -.05993638 41 1 65 H?-1.67533313590837 -118979865071961e-30 -.
05993638 204 80 66 4 3.141592653589795 -.5712235 6.2831853071795 .02 3.149446850
241965 -.571303656071749 5.94587220202614 .0199981513196602 3.156415920903035 -.
571535075589719 5.60857561605724 .01999341523254585 3.16171558535871 -.571891743
98515 5.27122502713543 .0199878653188952 3.164747100915735 -.57233349894018 4.93
382370439074 .0199839339191258 3.16516741931669 -.57281040482022 4.5964765993263
7 .01998334536302445 3.162930545626405 -.573268671091489 4.25920403854293 .01998
6355831876 3.15828889009015 -.573656785924584 3.92190998519906 .0199916461321606
 3.151764219582525 -.573931032406602 3.58453196862271 .01999689949517615 3.14409
2805540385 -.574060384629501 3.24713854995942 .01999981267614095 3.1361414042053
5 -.574030266833759 2.909822316314175 .0199991094638795 3.12880508960518 -.57384
415834188 2.572555363612205 .0199950996146256 3.122908343508345 -.57352297415753
9 2.2352329320755 .01998953830604035 3.11911678407762 -.573102834292474 1.897836
79310509 .01998486176527085 3.117859862250425 -.572631203241576 1.56046377622124
 .0199831213475505 3.119278477133385 -.572161341385924 1.223174666133192 .019985
07878393545 3.12321169192965 -.57174609928541 .885899248956789 .0199898752398394
 3.129217444129735 -.57143218937238 .548545967901831 .0199954105558644 3.1366189
3050171 -.571255089180739 .2111447792758075 .01999925865080085 3.141592653589795
 -.5712235 6.2831853071795 .02 14 74 103 77 ?78 14 79 5 16 -0 0 78 14 24 50 75 1
13 0 78 80 16 0 +-2.24655663590837 .05993638 0 1 0 0 0 0 -1 141 76 61 81 82 16 1
41 81 62 83 76 16 141 82 84 76 85 16 38 84 760 0 86 0 87 0 +16 46 88 89 89 90 14
1 85 87 82 91 16 38 87 759 0 92 84 93 0 +16 94 95 96 96 97 141 91 93 85 98 16 38
 93 758 0 99 87 100 0 +16 101 102 103 103 104 141 98 100 91 105 16 38 100 757 0
 106 93 107 0 +16 58 108 109 109 110 141 105 107 98 83 16 38 107 756 0 111 100 6
9 0 +16 112 113 114 114 115 141 83 69 105 81 16 38 69 755 0 116 107 62 0 +16 117
 118 119 119 120 16 116 467 0 ?121 17 122 69 0 0 1 51 117 742 0 123 20 112 124 +
-1.67391073590837 -.0282392851140427 .028239285114043 0 -.707106781186544 .70710
6781186551 .001422399999999944 0 -.707106781186551 -.707106781186544 40 20 118 0
 1 20 802128276581633e-19 .3374537920659105 ??-1.67391073590837 -.04337527313925
81 .04136369576813915 -1.67438148316138 -.0433199017850722 .04142168220673945 -1
.67479915631229 -.04315961288414705 .0415886698897066 -1.6751167501843 -.0429113
3449521765 .04184479680132245 -1.675298405653035 -.0426017459704078 .04215994411
496845 -1.6753235911513 -.0422649386596815 .04249758355010055 -1.67518955485311
 -.04193876717694785 .04281949853959265 -1.674911401351895 -.04166058805087895 .
04309019668972725 -1.67452037222084 -.04146295149967125 .04328040319174865 -1.67
4060585764695 -.04136942527172195 .0433698086252618 -1.67358400934567 -.04139121
9154556 .04334900949737995 -1.67314431654158 -.0415256536248559 .043220246858768
8 -1.67279093117941 -.0417566976754176 .04299706788547555 -1.67256372707566 -.04
20570877632981 .0427032904630856 -1.672488411836065 -.04239181160853765 .0423710
273188021 -1.672573415937285 -.0427226703767941 .04203740100648725 -1.6728091096
77885 -.0430128997661809 .04174038932747145 -1.67316902960757 -.0432309533717893
 .0415145073205813 -1.673612630214165 -.0433534605745782 .04138655704106 -1.6739
1073590837 -.0433752731392581 .04136369576813915 41 1 119 H?-1.67391073590837 -.
0433752731392581 .04136369576813915 204 80 120 4 5.47405308527308 -.5726459 0 .0
1998311954517655 5.47539079362891 -.57217515274699 5.945872218531 .0199849686890
9935 5.47925269031194 -.571757479596076 5.60857565426592 .0199897054433069 5.485
2042027189 -.571439885724069 5.27122504446111 .0199952551869208 5.49257490870143
 -.571258230255333 4.93382372464238 .019999185844202 5.50053180380605 -.57123304
4757068 4.59647662806004 .0199997742450122 5.5081778668378 -.571367081055259 4.2
59204017084945 .019996764449777 5.51465392645144 -.571645234556475 3.92190994683
631 .01999147460096395 5.51923039591063 -.572036263687529 3.58453195329455 .0199
862207627998 5.52138910250046 -.572496050143673 3.247138518195745 .0199833069211
101 5.5208864692117 -.572972626562699 2.909822297317425 .0199840103190824 5.5177
8064693959 -.573412319366789 2.57255539645677 .01998802090973125 5.5124210855060
9 -.57376570472896 2.23523295812825 .01999358235920235 5.50541087309873 -.573992
908832708 1.897836806888205 .01999825821981245 5.49754193857686 -.57406822407230
2 1.56046380871032 .0199999981981449 5.48970250641678 -.573983219971084 1.223174
662687536 .01999804124897405 5.48277398210971 -.573747526230482 .885899207424823
 .0199932454459854 5.47753577713215 -.573387606300799 .548545948041958 .01998770
99303532 5.47458027554584 -.572944005694202 .211144755023573 .0199838610938852 5
.47405308527308 -.5726459 0 .01998311954517655 14 123 480 125 ?126 127 128 5 117
 -0 0 126 127 24 51 20 745 0 126 94 117 129 +-1.67391073590837 -.03993638 139437
1255109484e-31 0 -1 3491481338843135e-30 .001422399999999944 0 -3491481338843135
e-30 -1 51 112 739 0 127 117 58 130 +-1.67391073590837 0 .03993638 0 0 1 .001422
399999999944 1 0 0 141 124 18 131 131 117 38 18 304 0 122 132 7 0 +19 117 133 13
4 134 135 141 131 69 124 124 117 16 122 466 0 ?136 116 111 18 0 0 1 38 132 298 0
 137 138 18 0 +19 112 139 140 140 141 40 20 133 0 1 20 802158694745264e-19 .3374
6225966533 ??-1.67391073590837 -.041404422809995 .039392845438876 -1.67343999615
7595 -.04134911705902155 .0394508937597026 -1.67302232975543 -.0411889976195102
 .03961803850646815 -1.6727047326972 -.04094091505552145 .0398743523385219 -1.67
25230697396 -.04063146087865595 .0401896365605147 -1.672497878422645 -.040294676
34420115 .04052729399202575 -1.6726319024779 -.0399684086937463 .040849097988690
95 -1.672910039378485 -.03969004804133885 .04111961316058585 -1.673301061216145
 -.0394922213088307 .0413096472521171 -1.673760847264285 -.039398584384145 .0413
989619256983 -1.674237417216215 -.0394203918183616 .04137819726482605 -1.6746771
0387649 -.03955494862681975 .0412495883510328 -1.675030498922985 -.0397861699705
39 .0410266154962287 -1.67525772424397 -.0400867164552588 .0407330046011302 -1.6
7533306063252 -.0404214986611223 .0404008037789955 -1.675248081276445 -.04075228
550610665 .04006711526961705 -1.675012417715715 -.04104235132028495 .03976993711
463865 -1.674652519110425 -.04126022885377375 .0395438492680496 -1.6742089252557
8 -.04138262345389345 .03941574528121065 -1.67391073590837 -.041404422809995 .03
9392845438876 41 1 134 H?-1.67391073590837 -.041404422809995 .039392845438876 20
4 80 135 4 5.47289568457817 -.5726459 0 .01719591628012515 5.47429860489789 -.57
3116639750776 .3373074993317835 .0171978555698662 5.47834872208163 -.57353430615
2936 .67459682378035 .01720282321226555 5.48459037001667 -.57385190321117 1.0119
45591177416 .01720864359773205 5.49232050288084 -.57403356616877 1.3493501363344
38 .0172127660621762 5.50066528452216 -.574058757485722 1.68669504473765 .017213
38329360395 5.50868397137417 -.573924733430469 2.023958029423055 .01721022701374
045 5.51547582105577 -.573646596529881 2.361244608279825 .01720467942126835 5.52
027572710139 -.573255574692221 2.69862348924067 .01719916919199025 5.52253998678
635 -.572795788644084 3.036019367113815 .01719611289892425 5.52201309183307 -.57
2319218692151 3.373330320061255 .0171968502510273 5.51875615620274 -.57187953203
188 3.710587016831775 .0172010560476786 5.51313555816357 -.571526136985386 4.047
904789700585 .01720688861012505 5.50578363723657 -.571298911664396 4.38530364537
7595 .0172117928125778 5.49753108968507 -.571223575275851 4.72267704958929 .0172
136181265173 5.48930955281335 -.571308554631924 5.05995822806939 .01721156633994
75 5.48204313880616 -.571544218192655 5.39722433167658 .01720653715553765 5.4765
4908801424 -.571904116797943 5.73457599745665 .01720073158746875 5.4734489074018
8 -.572347710652586 6.07198040468724 .01719669444140315 5.47289568457817 -.57264
59 0 .01719591628012515 16 137 509 0 ?142 111 106 132 0 0 1 38 138 292 0 143 144
 132 0 +19 58 145 146 146 147 40 20 139 0 1 20 80215851218631e-18 .3374622193758
28 ??-1.67248833590837 -12490009027033e-29 .05715 -1.67256848935061 .00047073977
7575421 .057148061244996 -1.672799900107635 .000888406204281036 .057143094372077
9 -1.673156562203895 .001206003226977286 .0571372737905522 -1.67359831897091 .00
138766617642338 .0571331504696075 -1.67407522147368 .0014128574800042 .057132533
0590304 -1.67453347724775 .001278833446633126 .0571356901158617 -1.6749215910518
9 .00100069657679654 .0571412382291563 -1.675195850105865 .000609674716051242 .0
571467479104508 -1.675325216427175 .0001498886984336852 .05714980344129 -1.67529
5113423315 -.0003266812760275395 .057149066303343 -1.67510902711858 -.0007663680
15727669 .0571448613618449 -1.67478786331598 -.001119763042262732 .0571390289620
78 -1.67436773061646 -.001346988343222216 .0571341239751099 -1.67389610236098 -.
001422324723574282 .0571322981542027 -1.67342624739344 -.001337345370090954 .057
1343505026626 -1.67301100325043 -.001101681852549984 .0571393804402512 -1.672697
072282035 -.000741783231220886 .0571451857783128 -1.672519943023445 -.0002981893
882097955 .0571492220689727 -1.67248833590837 -1426972693104284e-31 .05715 41 1
 140 H?-1.67248833590837 -1426972693104284e-31 .05715 204 80 141 4 0 -.5740683 6
.2831853071795 .01721362 .00823700963724939 -.573988146557756 .337307519298072 .
0172116812449959 .0155457915844896 -.573756735800735 .674596870002455 .017206714
3720778 .0211039851773408 -.573400073704474 1.011945612137058 .0172008937905521
 .0242835094957402 -.572958316937458 1.349350160831346 .0171967704696074 .024724
434581816 -.572481414434688 1.68669507949831 .0171961530590303 .0223786560584489
 -.57202315866062 2.023958003466645 .0171993101158616 .01751089622874435 -.57163
5044856477 2.361244561868475 .0172048582291562 .01066817639049674 -.571360785802
503 2.69862347069779 .0172103679104507 .00262272738886825 -.571231419481194 3.03
601932869008 .01721342344128995 6.27746906824508 -.571261522485052 3.37333029707
524 .01721268630334295 6.26977514119775 -.571447608789789 3.710587056561525 .017
2084813618448 6.26359064924273 -.571768772592389 4.047904821221955 .017202648962
0779 6.25961377461129 -.572188905291909 4.38530366204785 .0171977439751098 6.258
29516555655 -.572660533547389 4.72267708889182 .0171959181542026 6.2597825521004
8 -.573130388514927 5.05995822391011 .0171979705026625 6.26390709028625 -.573545
632657939 5.39722428143347 .01720300044025115 6.27020535860937 -.573859563626331
 5.73457597342691 .0172088057783127 6.27796762141912 -.574036692884925 6.0719803
7535423 .01721284206897265 0 -.5740683 6.28318530717949 .01721362 16 143 552 0 ?
148 106 99 138 0 0 1 38 144 286 0 149 45 138 0 +19 101 150 151 151 152 51 58 736
 0 153 112 46 154 +-1.67391073590837 .0282392851140431 .0282392851140426 0 .7071
06781186554 .707106781186541 .001422399999999944 0 -.707106781186541 .7071067811
86554 40 20 145 0 1 20 802158694745216e-19 .33746225966533 ??-1.67391073590837 .
03939284543887605 .04140442280999475 -1.673439996157595 .03945089375970265 .0413
491170590213 -1.67302232975543 .0396180385064682 .04118899761950995 -1.672704732
6972 .0398743523385219 .0409409150555212 -1.6725230697396 .04018963656051475 .04
06314608786557 -1.672497878422645 .04052729399202575 .0402946763442009 -1.672631
9024779 .04084909798869095 .03996840869374605 -1.672910039378485 .04111961316058
585 .0396900480413386 -1.673301061216145 .04130964725211715 .03949222130883045 -
1.673760847264285 .0413989619256983 .03939858438414475 -1.674237417216215 .04137
819726482605 .03942039181836135 -1.67467710387649 .0412495883510328 .03955494862
68195 -1.675030498922985 .0410266154962287 .03978616997053875 -1.67525772424397
 .0407330046011302 .04008671645525855 -1.67533306063252 .04040080377899555 .0404
2149866112205 -1.675248081276445 .04006711526961705 .0407522855061064 -1.6750124
17715715 .0397699371146387 .0410423513202847 -1.674652519110425 .039543849268049
65 .04126022885377345 -1.67420892525578 .03941574528121065 .0413826234538932 -1.
67391073590837 .03939284543887605 .04140442280999475 41 1 146 H?-1.6739107359083
7 .03939284543887605 .04140442280999475 204 80 147 4 .76050670419348 -.5726459 0
 .017195916280125 .761909624513206 -.573116639750776 .3373074993317835 .01719785
5569866 .765959741696941 -.573534306152936 .67459682378035 .01720282321226535 .7
72201389631985 -.57385190321117 1.011945591177414 .0172086435977319 .77993152249
615 -.57403356616877 1.34935013633444 .01721276606217605 .78827630413747 -.57405
8757485722 1.68669504473765 .0172133832936038 .796294990989486 -.573924733430469
 2.023958029423055 .01721022701374025 .803086840671079 -.573646596529881 2.36124
4608279825 .01720467942126815 .807886746716701 -.573255574692221 2.6986234892406
7 .01719916919199005 .810151006401664 -.572795788644084 3.036019367113815 .01719
611289892405 .809624111448385 -.572319218692151 3.373330320061255 .0171968502510
271 .806367175818049 -.57187953203188 3.710587016831775 .0172010560476784 .80074
6577778879 -.571526136985386 4.04790478970059 .01720688861012485 .79339465685188
2 -.571298911664396 4.385303645377595 .0172117928125776 .785142109300383 -.57122
3575275851 4.72267704958929 .0172136181265171 .776920572428666 -.571308554631924
 5.05995822806939 .0172115663399473 .769654158421474 -.571544218192655 5.3972243
3167658 .01720653715553745 .764160107629552 -.571904116797943 5.73457599745665 .
0172007315874686 .761059927017195 -.572347710652586 6.07198040468724 .0171966944
41403 .76050670419348 -.5726459 0 .017195916280125 14 153 566 155 ?127 156 157 5
 58 -0 0 127 156 24 141 154 138 158 158 58 141 158 100 154 154 58 81 1 155 1000
 159 153 160 0 125 161 162 14 127 523 161 ?123 153 163 5 112 -0 0 123 153 24 14
 156 609 164 ?153 165 166 5 101 -0 0 153 165 24 15 255 157 569 0 167 153 168 13
 24 65 0 0 0 0 0 0 8 14 14 14 106 169 ?74 0 170 5 6 -0 0 74 0 24 81 1 169 1003 1
59 14 171 0 164 172 173 15 170 163 0 29 14 174 17 29 0 170 29 29 0 25 9 0 0 -15
 174 105 0 175 14 0 17 175 0 174 175 175 0 176 68 0 0 +17 176 0 177 176 176 0 17
5 68 0 0 -16 68 68 0 ?175 178 42 63 0 0 1 16 178 70 0 ?179 180 68 73 0 0 1 17 17
9 0 181 179 179 0 182 178 0 0 +16 180 75 0 ?183 184 178 185 0 0 1 31 73 117 0 17
8 63 185 0 +-2.11955663590837 -12490009027033e-29 0 -1 0 0 0 0 1 .05715 31 185 1
18 0 180 73 186 0 +-2.11955663590837 -12490009027033e-29 0 -1 0 0 0 0 1 .0543636
2 31 186 119 0 184 185 187 0 +-2.37355663590837 -12490009027033e-29 0 -1 0 0 0 0
 1 .05436362 16 184 80 0 ?188 189 180 186 0 0 1 31 187 120 0 189 186 34 0 +-2.37
355663590837 -12490009027033e-29 0 -1 0 0 0 0 1 .05715 16 189 85 0 ?190 31 184 1
87 0 0 1 31 34 121 0 31 187 32 0 +-2.24655663590837 -12490009027033e-29 0 -1 0 0
 0 0 1 .05715 16 31 90 0 ?191 26 189 34 0 0 1 17 191 0 192 191 191 0 193 31 0 0
 +15 192 92 0 191 194 0 17 193 0 195 193 193 0 191 31 0 0 -15 195 161 0 193 78 1
96 14 78 98 172 ?194 74 195 5 75 -0 0 194 74 24 15 196 97 0 30 78 0 17 30 0 196
 30 30 0 197 26 0 0 +17 197 0 198 197 197 0 30 26 0 0 -15 198 162 0 197 74 28 15
 28 102 0 25 74 0 81 1 172 1004 159 78 199 0 169 200 201 14 194 93 200 ?202 78 2
03 5 80 -0 0 202 78 24 81 1 200 1005 159 194 204 0 172 205 206 14 202 88 205 ?20
7 194 208 5 209 -0 0 207 194 24 15 203 160 0 210 194 192 51 80 112 0 194 209 75
 0 --2.24655663590837 -12490009027033e-29 0 -1 0 0 .05715 0 0 1 50 209 111 0 202
 211 80 0 +-2.37355663590837 .05715 0 1 0 0 0 0 -1 51 211 110 0 207 51 209 0 +-2
.24655663590837 -12490009027033e-29 0 -1 0 0 .05436362 0 0 1 14 207 83 212 ?213
 202 214 5 211 -0 0 213 202 24 50 51 109 0 213 19 211 0 +-2.11955663590837 .0543
6362 0 -1 0 0 0 0 1 14 213 78 215 ?50 207 216 5 51 -0 0 50 207 24 81 1 215 1008
 159 213 217 0 212 218 219 14 50 73 218 ?53 213 220 5 19 -0 0 53 213 24 15 216 1
57 0 182 213 221 17 182 0 216 182 182 0 179 178 0 0 -15 221 77 0 183 213 0 17 18
3 0 221 183 183 0 222 180 0 0 +17 222 0 214 222 222 0 183 180 0 0 -15 214 158 0
 222 207 223 15 223 82 0 188 207 0 17 188 0 223 188 188 0 224 184 0 0 +17 224 0
 208 224 224 0 188 184 0 0 -15 208 159 0 224 202 225 15 225 87 0 190 202 0 17 19
0 0 225 190 190 0 210 189 0 0 +17 210 0 203 210 210 0 190 189 0 0 -81 1 218 1009
 159 50 226 0 215 227 228 15 220 308 0 229 50 230 17 229 0 220 229 229 0 231 17
 0 0 +15 230 302 0 136 50 232 17 136 0 230 136 136 0 233 122 0 0 +15 232 296 0 1
42 50 234 17 142 0 232 142 142 0 235 137 0 0 +15 234 290 0 148 50 236 17 148 0 2
34 148 148 0 167 143 0 0 +15 236 284 0 237 50 238 17 237 0 236 237 237 0 239 149
 0 0 +15 238 278 0 240 50 241 17 240 0 238 240 240 0 242 243 0 0 +15 241 272 0 2
44 50 245 17 244 0 241 244 244 0 246 44 0 0 +15 245 188 0 41 50 177 17 41 0 245
 41 41 0 247 35 0 0 +15 177 156 0 176 50 181 15 181 72 0 179 50 0 17 247 0 57 24
7 247 0 41 35 0 0 -15 57 230 0 247 53 248 15 248 231 0 249 53 0 17 249 0 248 249
 249 0 67 42 0 0 -17 67 0 250 67 67 0 249 42 0 0 +15 250 194 0 67 74 198 17 246
 0 251 246 246 0 244 44 0 0 -16 44 681 0 ?244 86 0 36 0 0 1 16 86 682 0 ?252 243
 44 84 0 0 1 17 252 0 253 252 252 0 254 86 0 0 +16 243 638 0 ?240 92 86 45 0 0 1
 16 92 639 0 ?255 149 243 87 0 0 1 38 45 280 0 243 36 144 0 +19 94 256 257 257 2
58 51 94 748 0 165 101 20 259 +-1.67391073590837 .0282392851140425 -.02823928511
40432 0 .707106781186539 -.707106781186556 .001422399999999944 0 .70710678118655
6 .707106781186539 40 20 256 0 1 20 802158694745361e-19 .3374622596653465 ??-1.6
7391073590837 .0414044228099946 -.0393928454388762 -1.673439996157595 .041349117
0590212 -.0394508937597027 -1.673022329755435 .0411889976195099 -.03961803850646
82 -1.6727047326972 .04094091505552105 -.03987435233852205 -1.6725230697396 .040
6314608786557 -.0401896365605147 -1.672497878422645 .04029467634420095 -.0405272
939920257 -1.6726319024779 .03996840869374605 -.04084909798869095 -1.67291003937
8485 .0396900480413386 -.04111961316058585 -1.673301061216145 .0394922213088304
 -.0413096472521172 -1.673760847264285 .0393985843841446 -.0413989619256984 -1.6
74237417216215 .0394203918183612 -.04137819726482625 -1.67467710387649 .03955494
862681925 -.04124958835103305 -1.675030498922985 .0397861699705386 -.04102661549
622885 -1.67525772424397 .04008671645525825 -.04073300460113045 -1.6753330606325
2 .04042149866112175 -.0404008037789958 -1.675248081276445 .0407522855061061 -.0
4006711526961735 -1.675012417715715 .0410423513202844 -.039769937114639 -1.67465
2519110425 .04126022885377325 -.03954384926804985 -1.67420892525578 .04138262345
3893 -.03941574528121085 -1.67391073590837 .0414044228099946 -.0393928454388762
 41 1 257 H?-1.67391073590837 .0414044228099946 -.0393928454388762 204 80 258 4
 2.331303030988375 -.5726459 0 .017195916280125 2.3327059513081 -.57311663975077
5 .3373074993316195 .017197855569866 2.336756068491835 -.573534306152936 .674596
823780153 .01720282321226535 2.34299771642688 -.57385190321117 1.0119455911774 .
0172086435977319 2.350727849291045 -.57403356616877 1.349350136334282 .017212766
06217605 2.35907263093236 -.574058757485722 1.68669504473745 .0172133832936038 2
.36709131778438 -.573924733430469 2.023958029422855 .01721022701374025 2.3738831
67465975 -.573646596529882 2.361244608279605 .01720467942126815 2.37868307351159
5 -.573255574692222 2.6986234892405 .0171991691919901 2.38094733319656 -.5727957
88644084 3.03601936711366 .01719611289892405 2.380420438243285 -.572319218692151
 3.373330320061095 .0171968502510271 2.37716350261295 -.57187953203188 3.7105870
1683159 .01720105604767845 2.371542904573775 -.571526136985386 4.04790478970058
 .01720688861012485 2.36419098364678 -.571298911664396 4.385303645377475 .017211
7928125776 2.355938436095285 -.571223575275851 4.72267704958917 .017213618126517
1 2.347716899223565 -.571308554631924 5.05995822806924 .0172115663399473 2.34045
0485216375 -.571544218192655 5.39722433167637 .01720653715553745 2.3349564344244
5 -.571904116797943 5.73457599745647 .0172007315874686 2.331856253812095 -.57234
7710652586 6.07198040468708 .01719669444140295 2.331303030988375 -.5726459 0 .01
7195916280125 14 165 652 227 ?156 56 260 5 94 -0 0 156 56 24 51 101 751 0 156 0
 94 261 +-1.67391073590837 .03993638 -418311376532845e-30 0 1 -104744440165294e-
28 .001422399999999944 0 104744440165294e-28 1 141 259 45 262 262 94 141 262 87
 259 259 94 141 261 144 263 263 101 141 263 93 261 261 101 81 1 227 1010 159 165
 264 0 218 265 266 14 56 695 265 ?165 53 251 5 46 -0 0 165 53 24 15 260 655 0 24
2 165 267 17 242 0 260 242 242 0 240 243 0 0 -15 267 656 0 268 165 0 17 268 0 26
7 268 268 0 255 92 0 0 -17 255 0 269 255 255 0 268 92 0 0 +15 269 329 0 255 74 2
53 15 253 314 0 252 74 250 81 1 265 1011 159 56 270 0 227 271 272 15 251 698 0 2
46 56 273 15 273 699 0 254 56 0 17 254 0 273 254 254 0 252 86 0 0 -80 255 1 159
 274 275 9000 1 1 1 1 1 1 1 1 0 FFFFTFTFFFFFFF1 81 1 270 956 276 56 0 265 277 26
4 278 81 1 271 1012 159 126 279 0 265 0 280 82 255 1 272 108396689 14 126 437 27
1 ?0 123 281 5 20 -0 0 0 123 24 81 1 279 962 276 126 0 271 282 0 283 82 1 280 12
0979601 80 1 276 0 284 8001 0 0 0 0 3 5 0 0 0 FFFFTFTFFFFFFF2 81 1 282 961 276 1
23 0 125 285 279 286 83 255 3 283 .847058823529412 .847058823529412 .84705882352
9412 81 1 125 999 159 123 282 0 77 155 287 81 1 285 960 276 127 0 161 160 282 28
8 83 3 286 .847058823529412 .847058823529412 .847058823529412 81 1 161 1001 159
 127 285 0 155 164 289 81 1 160 959 276 153 0 155 290 285 291 83 3 288 .84705882
3529412 .847058823529412 .847058823529412 81 1 290 958 276 156 0 164 264 160 292
 83 3 291 .847058823529412 .847058823529412 .847058823529412 81 1 164 1002 159 1
56 290 0 161 169 293 81 1 264 957 276 165 0 227 270 290 294 83 3 292 .8470588235
29412 .847058823529412 .847058823529412 83 3 294 .847058823529412 .8470588235294
12 .847058823529412 82 1 293 112590993 82 1 289 116785297 81 1 77 998 159 74 295
 0 55 125 296 82 1 287 118882449 81 1 295 948 276 74 0 77 171 199 297 81 1 55 99
7 159 53 277 0 0 77 298 82 1 296 26083473 81 1 277 955 276 53 0 55 226 270 299 8
2 1 298 42598544 81 1 226 954 276 50 0 218 217 277 300 83 3 299 .847058823529412
 .847058823529412 .847058823529412 81 1 217 953 276 213 0 215 301 226 302 83 3 3
00 .847058823529412 .847058823529412 .847058823529412 81 1 301 952 276 207 0 212
 303 217 304 83 3 302 .847058823529412 .847058823529412 .847058823529412 81 1 21
2 1007 159 207 301 0 205 215 305 81 1 303 951 276 202 0 205 204 301 306 83 3 304
 .847058823529412 .847058823529412 .847058823529412 81 1 205 1006 159 202 303 0
 200 212 307 81 1 204 950 276 194 0 200 199 303 308 83 3 306 .847058823529412 .8
47058823529412 .847058823529412 81 1 199 949 276 78 0 172 295 204 309 83 3 308 .
847058823529412 .847058823529412 .847058823529412 83 3 309 .847058823529412 .847
058823529412 .847058823529412 82 1 307 24313995 82 1 305 23724171 81 1 171 947 2
76 14 0 169 0 295 310 83 3 297 .847058823529412 .847058823529412 .84705882352941
2 83 3 310 .847058823529412 .847058823529412 .847058823529412 79 255 15 284 SDL/
TYSA_COLOUR15 281 440 0 231 126 311 17 231 0 281 231 231 0 229 17 0 0 -15 311 44
1 0 312 126 0 17 312 0 311 312 312 0 313 43 0 0 -17 313 0 79 313 313 0 312 43 0
 0 +16 43 424 0 ?313 35 17 62 0 0 1 16 17 423 0 ?229 43 116 7 0 0 1 15 79 404 0
 313 74 314 15 314 389 0 121 74 315 17 121 0 314 121 121 0 316 116 0 0 +15 315 3
74 0 317 74 318 17 317 0 315 317 317 0 319 111 0 0 +15 318 359 0 320 74 321 17 3
20 0 318 320 320 0 322 106 0 0 +15 321 344 0 323 74 269 17 323 0 321 323 323 0 3
24 99 0 0 +17 324 0 325 324 324 0 323 99 0 0 -16 99 596 0 ?323 143 149 93 0 0 1
 16 149 595 0 ?237 99 92 144 0 0 1 15 325 613 0 324 156 0 17 322 0 168 322 322 0
 320 106 0 0 -16 106 553 0 ?320 137 143 100 0 0 1 15 168 570 0 322 153 0 17 319
 0 326 319 319 0 317 111 0 0 -16 111 510 0 ?317 122 137 107 0 0 1 15 326 527 0 3
19 127 0 17 316 0 327 316 316 0 121 116 0 0 -15 327 484 0 316 123 0 83 3 278 .84
7058823529412 .847058823529412 .847058823529412 79 14 275 SWEntUnchanged82 1 266
 110493841 17 239 0 166 239 239 0 237 149 0 0 -15 166 612 0 239 156 325 17 167 0
 157 167 167 0 148 143 0 0 -17 235 0 163 235 235 0 142 137 0 0 -15 163 526 0 235
 127 326 17 233 0 128 233 233 0 136 122 0 0 -15 128 483 0 233 123 327 82 1 228 2
2544529 82 1 219 23134347 82 1 206 24903819 82 1 201 25493643 82 1 173 26411147
 82 1 162 114688145 40 20 150 0 1 20 80215869474527e-18 .33746225966533 ??-1.673
91073590837 .057132296280125 .001422399999999346 -1.673439996157595 .05713423556
98661 .00134224656715443 -1.67302232975543 .0571392032122654 .001110835841798518
 -1.6727047326972 .0571450235977319 .000754173729750832 -1.6725230697396 .057149
1460621761 .000312416971450479 -1.672497878422645 .0571497632936038 -.0001644855
16200742 -1.6726319024779 .0571466070137403 -.000622741372574066 -1.672910039378
485 .0571410594212682 -.00101085518996761 -1.673301061216145 .0571355491919901 -
.001285114208802466 -1.673760847264285 .0571324928989241 -.001414480524565884 -1
.674237417216215 .0571332302510271 -.001384377507439252 -1.67467710387649 .05713
74360476784 -.001198291240659426 -1.675030498922985 .0571432686101249 -.00087712
7442907983 -1.67525772424397 .0571481728125777 -.000456994730546444 -1.675333060
63252 .0571499981265171 1463349148738854e-20 -1.675248081276445 .057147946339947
3 .000484488520488686 -1.675012417715715 .0571429171555375 .000899732713290285 -
1.674652519110425 .0571371115874686 .00121366364415539 -1.67420892525578 .057133
074441403 .00139079289367152 -1.67391073590837 .057132296280125 .001422399999999
346 41 1 151 H?-1.67391073590837 .057132296280125 .001422399999999346 204 80 152
 4 1.54590486759093 -.5726459 0 .01719591628012495 1.547307787910655 -.573116639
750776 .3373074993317835 .017197855569866 1.55135790509439 -.573534306152936 .67
4596823780351 .01720282321226535 1.557599553029435 -.57385190321117 1.0119455911
77416 .01720864359773185 1.5653296858936 -.57403356616877 1.349350136334438 .017
212766062176 1.57367446753492 -.574058757485722 1.68669504473765 .01721338329360
375 1.581693154386935 -.573924733430469 2.02395802942305 .01721022701374025 1.58
848500406853 -.573646596529881 2.361244608279825 .01720467942126815 1.5932849101
1415 -.573255574692221 2.69862348924067 .01719916919199005 1.59554916979911 -.57
2795788644084 3.036019367113815 .01719611289892405 1.595022274845835 -.572319218
692151 3.373330320061255 .0171968502510271 1.591765339215495 -.57187953203188 3.
710587016831775 .0172010560476784 1.58614474117633 -.571526136985386 4.047904789
700585 .01720688861012485 1.57879282024933 -.571298911664396 4.38530364537759 .0
172117928125776 1.57054027269783 -.571223575275851 4.72267704958929 .01721361812
65171 1.562318735826115 -.571308554631924 5.05995822806939 .01721156633994725 1.
555052321818925 -.571544218192655 5.39722433167658 .0172065371555374 1.549558271
027 -.571904116797943 5.73457599745665 .01720073158746855 1.546458090414645 -.57
2347710652586 6.07198040468724 .01719669444140295 1.54590486759093 -.5726459 0 .
01719591628012495 141 130 132 328 328 112 141 328 107 130 130 112 141 129 7 329
 329 20 141 329 62 129 129 20 40 20 113 0 1 20 80212812566068e-18 .3374537587563
395 ??-1.67248833590837 -12490009027033e-29 .05993638 -1.672568491980115 -.00047
074727516322 .0599345313196602 -1.672799911498085 -.000888420446367052 .05992979
52325459 -1.67315657989352 -.001206014288997368 .0599242453188953 -1.67359833484
855 -.00138766975099386 .0599203139191258 -1.67407524072859 -.001412855238205332
 .0599197253630245 -1.674533506999855 -.001278818958103876 .0599227358318761 -1.
67492162183295 -.001000665482305636 .0599280261321607 -1.67519586831497 -.000609
636332169568 .0599332794951762 -1.67532522053787 -.0001498499012558268 .05993619
2676141 -1.675295102742125 .0003267265364009105 .0599354894638796 -1.67510899425
025 .000766419406144995 .0599314796146257 -1.67478781006591 .001119804751809976
 .0599259183060404 -1.674367670200845 .001347008839006102 .0599212417652709 -1.6
73896039149945 .001422324071824582 .0599195013475506 -1.673426177294295 .0013373
1997275327 .0599214587839355 -1.67301093519378 .00110162626785288 .0599262552398
394 -1.67269702528075 .000741706324903463 .0599317905558645 -1.672519925089105 .
00029810572793245 .0599356386508009 -1.67248833590837 -118979865071961e-30 .0599
3638 41 1 114 H?-1.67248833590837 -118979865071961e-30 .05993638 204 80 115 4 0
 -.5740683 6.2831853071795 .02 6.27533111052741 -.573988143928251 5.945872202026
14 .0199981513196602 6.26836203986635 -.573756724410281 5.60857561605724 .019993
41523254585 6.26306237541067 -.57340005601485 5.27122502713543 .0199878653188952
 6.26003085985365 -.57295830105982 4.93382370439074 .0199839339191258 6.25961054
145269 -.57248139517978 4.59647659932637 .01998334536302445 6.26184741514297 -.5
72023128908511 4.25920403854293 .019986355831876 6.26648907067923 -.571635014075
416 3.92190998519906 .0199916461321606 6.27301374118685 -.571360767593398 3.5845
3196862271 .01999689949517615 6.28068515522899 -.571231415370499 3.2471385499594
2 .01999981267614095 .00545124938444393 -.571261533166241 2.909822316314175 .019
9991094638795 .01278756398461416 -.57144764165812 2.572555363612205 .01999509961
46256 .01868431008145015 -.571768825842461 2.2352329320755 .01998953830604035 .0
2247586951217565 -.572188965707525 1.89783679310509 .01998486176527085 .02373279
133937085 -.572660596758424 1.56046377622124 .0199831213475505 .0223141764564063
5 -.573130458614076 1.223174666133192 .01998507878393545 .01838096166014285 -.57
354570071459 .885899248956789 .0199898752398394 .0123752094600596 -.573859610627
62 .548545967901831 .0199954105558644 .00497372308808324 -.574036710819261 .2111
447792758075 .01999925865080085 987751545617051e-31 -.5740683 6.2831853071795 .0
2 40 20 108 0 1 20 802128276581683e-19 .337453792065911 ??-1.67391073590837 .041
36369576813915 .04337527313925785 -1.67438148316138 .0414216822067395 .043319901
78507195 -1.67479915631229 .0415886698897066 .0431596128841468 -1.6751167501843
 .04184479680132245 .04291133449521735 -1.675298405653035 .04215994411496845 .04
26017459704075 -1.6753235911513 .0424975835501006 .04226493865968125 -1.67518955
485311 .0428194985395927 .0419387671769476 -1.674911401351895 .04309019668972725
 .0416605880508787 -1.67452037222084 .0432804031917487 .041462951499671 -1.67406
0585764695 .0433698086252618 .0413694252717217 -1.67358400934567 .04334900949737
995 .0413912191545557 -1.67314431654158 .0432202468587688 .0415256536248556 -1.6
7279093117941 .0429970678854756 .0417566976754173 -1.67256372707566 .04270329046
308565 .04205708776329785 -1.672488411836065 .0423710273188021 .0423918116085373
5 -1.672573415937285 .0420374010064873 .04272267037679385 -1.672809109677885 .04
17403893274715 .04301289976618065 -1.67316902960757 .04151450732058135 .04323095
3371789 -1.673612630214165 .04138655704106 .04335346057457795 -1.67391073590837
 .04136369576813915 .04337527313925785 41 1 109 H?-1.67391073590837 .04136369576
813915 .04337527313925785 204 80 110 4 .76166410488839 -.5726459 0 .019983119545
17635 .763001813244222 -.57217515274699 5.945872218531 .01998496868909915 .76686
3709927257 -.571757479596076 5.60857565426592 .01998970544330675 .77281522233421
5 -.571439885724069 5.27122504446111 .0199952551869206 .780185928316739 -.571258
230255333 4.93382372464238 .01999918584420185 .788142823421365 -.571233044757068
 4.59647662806004 .019999774245012 .795788886453115 -.571367081055259 4.25920401
7084945 .01999676444977685 .802264946066753 -.571645234556475 3.92190994683631 .
0199914746009638 .806841415525943 -.572036263687529 3.58453195329455 .0199862207
627996 .809000122115775 -.572496050143673 3.247138518195745 .0199833069211099 .8
08497488827014 -.572972626562699 2.909822297317425 .0199840103190822 .8053916665
54904 -.573412319366789 2.57255539645677 .01998802090973105 .800032105121401 -.5
7376570472896 2.23523295812825 .0199935823592022 .793021892714043 -.573992908832
708 1.89783680688821 .0199982582198123 .785152958192177 -.574068224072302 1.5604
63808710315 .01999999819814475 .777313526032098 -.573983219971084 1.223174662687
532 .01999804124897385 .770385001725028 -.573747526230482 .885899207424823 .0199
932454459852 .765146796747464 -.573387606300799 .54854594804196 .019987709930353
 .76219129516115 -.572944005694202 .211144755023573 .019983861093885 .7616641048
8839 -.5726459 0 .01998311954517635 40 20 102 0 1 20 802128276581606e-19 .337453
7920659105 ??-1.67391073590837 .0599194995451764 .001422399999999318 -1.67438148
316138 .0599213486890992 .001342243936019834 -1.67479915631229 .0599260854433068
 .001110824444226048 -1.6751167501843 .0599316351869206 .000754156035744048 -1.6
75298405653035 .0599355658442019 .000312401087921643 -1.6753235911513 .059936154
245012 -.000164504779624024 -1.67518955485311 .0599331444497769 -.00062277111893
0123 -1.674911401351895 .0599278546009638 -.00101088596297279 -1.67452037222084
 .0599226007627996 -.001285132415947224 -1.674060585764695 .0599196869211099 -.0
01414484634261016 -1.67358400934567 .0599203903190822 -.001384366827552648 -1.67
314431654158 .0599244009097311 -.00119825836705297 -1.67279093117941 .0599299623
592022 -.000877074186714083 -1.67256372707566 .0599346382198123 -.00045693431104
1111 -1.672488411836065 .0599363781981448 1469671221384004e-20 -1.67257341593728
5 .0599344212489739 .000484558618683101 -1.672809109677885 .0599296254459852 .00
0899800760341798 -1.67316902960757 .0599240899303531 .001213710642349706 -1.6736
12630214165 .0599202410938851 .001390810826490212 -1.67391073590837 .05991949954
51764 .001422399999999318 41 1 103 H?-1.67391073590837 .0599194995451764 .001422
399999999318 204 80 104 4 1.54706226828584 -.5726459 0 .0199831195451763 1.54839
997664167 -.57217515274699 5.945872218531 .01998496868909915 1.552261873324705 -
.571757479596076 5.60857565426592 .0199897054433067 1.558213385731665 -.57143988
5724069 5.27122504446111 .01999525518692055 1.565584091714185 -.571258230255333
 4.93382372464238 .0199991858442018 1.573540986818815 -.571233044757068 4.596476
62806004 .01999977424501195 1.581187049850565 -.571367081055259 4.25920401708494
5 .0199967644497768 1.5876631094642 -.571645234556475 3.92190994683631 .01999147
460096375 1.59223957892339 -.572036263687529 3.58453195329455 .0199862207627996
 1.594398285513225 -.572496050143673 3.247138518195745 .0199833069211099 1.59389
5652224465 -.572972626562699 2.909822297317425 .0199840103190822 1.5907898299523
5 -.573412319366789 2.57255539645677 .01998802090973105 1.58543026851885 -.57376
570472896 2.23523295812825 .01999358235920215 1.57842005611149 -.573992908832708
 1.897836806888205 .01999825821981225 1.570551121589625 -.574068224072302 1.5604
6380871032 .0199999981981447 1.562711689429545 -.573983219971084 1.2231746626875
32 .01999804124897385 1.555783165122475 -.573747526230482 .885899207424822 .0199
9324544598515 1.550544960144915 -.573387606300799 .54854594804196 .0199877099303
53 1.5475894585586 -.572944005694202 .211144755023573 .019983861093885 1.5470622
6828584 -.5726459 0 .01998311954517635 40 20 95 0 1 20 802128276581683e-19 .3374
53792065911 ??-1.67391073590837 .0433752731392577 -.0413636957681393 -1.67438148
316138 .0433199017850718 -.04142168220673965 -1.67479915631229 .0431596128841466
5 -.04158866988970675 -1.6751167501843 .0429113344952172 -.0418447968013226 -1.6
75298405653035 .0426017459704074 -.0421599441149686 -1.6753235911513 .0422649386
596811 -.04249758355010075 -1.67518955485311 .04193876717694745 -.04281949853959
285 -1.674911401351895 .04166058805087855 -.0430901966897274 -1.67452037222084 .
04146295149967085 -.04328040319174885 -1.674060585764695 .04136942527172155 -.04
336980862526195 -1.67358400934567 .0413912191545556 -.0433490094973801 -1.673144
31654158 .04152565362485545 -.04322024685876895 -1.67279093117941 .0417566976754
172 -.0429970678854757 -1.67256372707566 .0420570877632977 -.0427032904630858 -1
.672488411836065 .0423918116085372 -.04237102731880225 -1.672573415937285 .04272
26703767937 -.04203740100648745 -1.672809109677885 .0430128997661805 -.041740389
32747165 -1.67316902960757 .04323095337178885 -.0415145073205815 -1.673612630214
165 .0433534605745778 -.04138655704106015 -1.67391073590837 .0433752731392577 -.
0413636957681393 41 1 96 H?-1.67391073590837 .0433752731392577 -.041363695768139
3 204 80 97 4 2.33246043168329 -.5726459 0 .01998311954517635 2.33379814003912 -
.57217515274699 5.945872218531 .01998496868909915 2.337660036722155 -.5717574795
96076 5.60857565426592 .0199897054433067 2.343611549129115 -.571439885724069 5.2
7122504446111 .0199952551869206 2.350982255111635 -.571258230255333 4.9338237246
4238 .01999918584420185 2.358939150216265 -.571233044757068 4.59647662806004 .01
9999774245012 2.366585213248015 -.571367081055259 4.259204017084945 .01999676444
977685 2.37306127286165 -.571645234556475 3.92190994683631 .0199914746009638 2.3
7763774232084 -.572036263687529 3.58453195329455 .0199862207627996 2.37979644891
067 -.572496050143673 3.247138518195745 .0199833069211099 2.37929381562191 -.572
972626562699 2.909822297317425 .01998401031908225 2.3761879933498 -.573412319366
789 2.57255539645677 .0199880209097311 2.3708284319163 -.57376570472896 2.235232
95812825 .0199935823592022 2.36381821950894 -.573992908832708 1.897836806888205
 .0199982582198123 2.355949284987075 -.574068224072302 1.560463808710315 .019999
99819814475 2.348109852826995 -.573983219971084 1.223174662687532 .0199980412489
7385 2.341181328519925 -.573747526230482 .885899207424823 .0199932454459852 2.33
594312354236 -.573387606300799 .548545948041959 .019987709930353 2.3329876219560
5 -.572944005694202 .211144755023573 .019983861093885 2.33246043168329 -.5726459
 0 .01998311954517635 40 20 88 0 1 20 802128276581583e-19 .3374537920659095 ??-1
.67391073590837 -.041363695768139 -.04337527313925825 -1.67438148316138 -.041421
6822067393 -.04331990178507235 -1.67479915631229 -.0415886698897064 -.0431596128
841472 -1.6751167501843 -.0418447968013223 -.0429113344952178 -1.675298405653035
 -.0421599441149683 -.04260174597040795 -1.6753235911513 -.0424975835501004 -.04
226493865968165 -1.67518955485311 -.04281949853959255 -.041938767176948 -1.67491
1401351895 -.0430901966897271 -.0416605880508791 -1.67452037222084 -.04328040319
174855 -.0414629514996714 -1.674060585764695 -.04336980862526165 -.0413694252717
221 -1.67358400934567 -.0433490094973798 -.04139121915455615 -1.67314431654158 -
.04322024685876865 -.04152565362485605 -1.67279093117941 -.0429970678854754 -.04
175669767541775 -1.67256372707566 -.04270329046308545 -.04205708776329825 -1.672
488411836065 -.04237102731880195 -.0423918116085378 -1.672573415937285 -.0420374
010064871 -.0427226703767943 -1.672809109677885 -.0417403893274713 -.04301289976
618105 -1.67316902960757 -.04151450732058115 -.0432309533717894 -1.6736126302141
65 -.04138655704105985 -.04335346057457835 -1.67391073590837 -.041363695768139 -
.04337527313925825 41 1 89 H?-1.67391073590837 -.041363695768139 -.0433752731392
5825 204 80 90 4 3.903256758478175 -.5726459 0 .01998311954517655 3.904594466834
005 -.57217515274699 5.945872218531 .01998496868909935 3.90845636351704 -.571757
479596076 5.60857565426592 .0199897054433069 3.914407875924 -.571439885724069 5.
27122504446111 .0199952551869208 3.92177858190652 -.571258230255333 4.9338237246
4238 .019999185844202 3.92973547701115 -.571233044757068 4.59647662806004 .01999
97742450122 3.9373815400429 -.571367081055259 4.259204017084945 .019996764449777
05 3.943857599656535 -.571645234556475 3.92190994683631 .01999147460096395 3.948
434069115725 -.572036263687529 3.584531953294545 .0199862207627998 3.95059277570
556 -.572496050143673 3.247138518195745 .0199833069211101 3.950090142416795 -.57
2972626562699 2.909822297317425 .0199840103190824 3.946984320144685 -.5734123193
66789 2.57255539645677 .01998802090973125 3.941624758711185 -.57376570472896 2.2
3523295812825 .01999358235920235 3.934614546303825 -.573992908832708 1.897836806
88821 .01999825821981245 3.92674561178196 -.574068224072302 1.56046380871032 .01
99999981981449 3.91890617962188 -.573983219971084 1.223174662687532 .01999804124
897405 3.91197765531481 -.573747526230482 .88589920742482 .01999324544598535 3.9
0673945033725 -.573387606300799 .548545948041959 .0199877099303532 3.90378394875
0935 -.572944005694202 .211144755023574 .0199838610938852 3.903256758478175 -.57
26459 0 .01998311954517655 40 20 70 0 1 20 802128276581606e-19 .3374537920659105
 ??-1.67391073590837 -.0599194995451766 -.001422399999999736 -1.67438148316138 -
.0599213486890995 -.001342243936020252 -1.67479915631229 -.059926085443307 -.001
110824444226466 -1.6751167501843 -.0599316351869209 -.000754156035744467 -1.6752
98405653035 -.0599355658442021 -.000312401087922062 -1.6753235911513 -.059936154
2450123 .000164504779623605 -1.67518955485311 -.0599331444497771 .00062277111892
9704 -1.674911401351895 -.0599278546009641 .001010885962972372 -1.67452037222084
 -.0599226007627999 .001285132415946806 -1.674060585764695 -.0599196869211102 .0
01414484634260598 -1.67358400934567 -.0599203903190825 .00138436682755223 -1.673
14431654158 -.0599244009097314 .00119825836705255 -1.67279093117941 -.0599299623
592025 .000877074186713665 -1.67256372707566 -.0599346382198126 .000456934311040
693 -1.672488411836065 -.059936378198145 -1469671221425746e-20 -1.67257341593728
5 -.0599344212489741 -.000484558618683518 -1.672809109677885 -.0599296254459855
 -.000899800760342216 -1.67316902960757 -.0599240899303533 -.001213710642350124
 -1.673612630214165 -.0599202410938853 -.00139081082649063 -1.67391073590837 -.0
599194995451766 -.001422399999999736 41 1 71 H?-1.67391073590837 -.0599194995451
766 -.001422399999999736 204 80 72 4 4.68865492187563 -.5726459 0 .0199831195451
766 4.68999263023146 -.57217515274699 5.945872218531 .0199849686890994 4.6938545
2691449 -.571757479596076 5.60857565426592 .01998970544330695 4.69980603932145 -
.571439885724069 5.27122504446111 .0199952551869208 4.70717674530397 -.571258230
255333 4.93382372464238 .01999918584420205 4.7151336404086 -.571233044757068 4.5
9647662806004 .0199997742450122 4.72277970344035 -.571367081055259 4.25920401708
4945 .01999676444977705 4.72925576305399 -.571645234556475 3.92190994683631 .019
991474600964 4.73383223251318 -.572036263687529 3.58453195329455 .01998622076279
985 4.73599093910301 -.572496050143673 3.247138518195745 .01998330692111015 4.73
548830581425 -.572972626562699 2.909822297317425 .01998401031908245 4.7323824835
4214 -.573412319366789 2.57255539645677 .0199880209097313 4.72702292210864 -.573
76570472896 2.23523295812825 .0199935823592024 4.72001270970128 -.57399290883270
8 1.897836806888205 .0199982582198125 4.71214377517941 -.574068224072302 1.56046
380871032 .01999999819814495 4.70430434301933 -.573983219971084 1.22317466268753
2 .01999804124897405 4.69737581871226 -.573747526230482 .885899207424822 .019993
2454459854 4.6921376137347 -.573387606300799 .54854594804196 .01998770993035325
 4.68918211214839 -.572944005694202 .211144755023573 .0199838610938852 4.6886549
2187563 -.5726459 0 .0199831195451766 141 59 36 330 330 46 141 330 84 59 59 46 1
41 52 33 331 332 19 141 331 7 333 52 19 141 332 36 52 334 19 141 334 45 332 335
 19 141 335 144 334 336 19 141 336 138 335 337 19 141 337 132 336 333 19 141 333
 18 337 331 19 40 20 47 0 1 20 802158694745166e-19 .337462259665328 ??-1.6739107
3590837 -.0393928454388759 -.04140442280999515 -1.673439996157595 -.039450893759
70245 -.0413491170590217 -1.67302232975543 -.039618038506468 -.04118899761951035
 -1.6727047326972 -.03987435233852175 -.0409409150555216 -1.6725230697396 -.0401
896365605146 -.0406314608786561 -1.672497878422645 -.0405272939920256 -.04029467
63442013 -1.6726319024779 -.0408490979886908 -.03996840869374645 -1.672910039378
485 -.0411196131605857 -.039690048041339 -1.673301061216145 -.041309647252117 -.
03949222130883085 -1.673760847264285 -.04139896192569815 -.03939858438414515 -1.
674237417216215 -.0413781972648259 -.0394203918183618 -1.67467710387649 -.041249
58835103265 -.0395549486268199 -1.675030498922985 -.04102661549622855 -.03978616
997053915 -1.67525772424397 -.04073300460113005 -.04008671645525895 -1.675333060
63252 -.0404008037789954 -.04042149866112245 -1.675248081276445 -.04006711526961
69 -.0407522855061068 -1.675012417715715 -.0397699371146385 -.0410423513202851 -
1.674652519110425 -.03954384926804945 -.0412602288537739 -1.67420892525578 -.039
4157452812105 -.0413826234538936 -1.67391073590837 -.0393928454388759 -.04140442
280999515 41 1 48 H?-1.67391073590837 -.0393928454388759 -.04140442280999515 204
 80 49 4 3.902099357783265 -.5726459 0 .01719591628012515 3.90350227810299 -.573
116639750776 .3373074993317835 .0171978555698662 3.907552395286725 -.57353430615
2936 .674596823780352 .01720282321226555 3.91379404322177 -.57385190321117 1.011
945591177416 .01720864359773205 3.921524176085935 -.57403356616877 1.34935013633
4436 .0172127660621762 3.929868957727255 -.574058757485722 1.68669504473764 .017
21338329360395 3.93788764457927 -.573924733430469 2.023958029423055 .01721022701
374045 3.944679494260865 -.573646596529881 2.361244608279825 .01720467942126835
 3.949479400306485 -.573255574692221 2.698623489240675 .01719916919199025 3.9517
43659991445 -.572795788644084 3.036019367113815 .01719611289892425 3.95121676503
817 -.572319218692151 3.373330320061255 .0171968502510273 3.94795982940783 -.571
87953203188 3.710587016831775 .0172010560476786 3.942339231368665 -.571526136985
386 4.047904789700585 .01720688861012505 3.934987310441665 -.571298911664396 4.3
85303645377595 .0172117928125778 3.926734762890165 -.571223575275851 4.722677049
58929 .0172136181265173 3.91851322601845 -.571308554631924 5.05995822806939 .017
2115663399475 3.911246812011255 -.571544218192655 5.39722433167658 .017206537155
53765 3.905752761219335 -.571904116797943 5.73457599745665 .01720073158746875 3.
90265258060698 -.572347710652586 6.07198040468724 .01719669444140315 3.902099357
783265 -.5726459 0 .01719591628012515 19 15 61 0 1 0 8 5 S0 40 20 21 0 1 20 8021
5869474527e-18 .3374622596653305 ??-1.67391073590837 -.0571322962801253 -.001422
399999999746 -1.673439996157595 -.0571342355698663 -.00134224656715483 -1.673022
32975543 -.0571392032122656 -.001110835841798916 -1.6727047326972 -.057145023597
7322 -.000754173729751231 -1.6725230697396 -.0571491460621763 -.0003124169714508
78 -1.672497878422645 -.0571497632936041 .000164485516200343 -1.6726319024779 -.
0571466070137405 .000622741372573667 -1.672910039378485 -.0571410594212684 .0010
1085518996721 -1.673301061216145 -.0571355491919904 .001285114208802068 -1.67376
0847264285 -.0571324928989243 .001414480524565486 -1.674237417216215 -.057133230
2510274 .001384377507438854 -1.67467710387649 -.0571374360476787 .00119829124065
9026 -1.675030498922985 -.0571432686101251 .000877127442907584 -1.67525772424397
 -.0571481728125779 .000456994730546045 -1.67533306063252 -.0571499981265174 -14
63349148778704e-20 -1.675248081276445 -.0571479463399476 -.000484488520489084 -1
.675012417715715 -.0571429171555377 -.000899732713290684 -1.674652519110425 -.05
71371115874689 -.00121366364415579 -1.67420892525578 -.0571330744414033 -.001390
79289367192 -1.67391073590837 -.0571322962801253 -.001422399999999746 41 1 22 H?
-1.67391073590837 -.0571322962801253 -.001422399999999746 204 80 23 4 4.68749752
118071 -.5726459 0 .0171959162801252 4.68890044150044 -.573116639750776 .3373074
993317835 .01719785556986625 4.69295055868418 -.573534306152936 .674596823780351
 .0172028232122656 4.69919220661922 -.57385190321117 1.011945591177416 .01720864
35977321 4.70692233948339 -.57403356616877 1.349350136334438 .01721276606217625
 4.7152671211247 -.574058757485722 1.68669504473765 .017213383293604 4.723285807
97672 -.573924733430469 2.02395802942305 .0172102270137405 4.73007765765831 -.57
3646596529881 2.361244608279825 .0172046794212684 4.73487756370394 -.57325557469
2221 2.69862348924067 .0171991691919903 4.7371418233889 -.572795788644084 3.0360
19367113815 .01719611289892425 4.73661492843562 -.572319218692151 3.373330320061
255 .01719685025102735 4.73335799280528 -.57187953203188 3.710587016831775 .0172
0105604767865 4.72773739476611 -.571526136985386 4.047904789700585 .017206888610
1251 4.72038547383912 -.571298911664396 4.38530364537759 .01721179281257785 4.71
213292628762 -.571223575275851 4.72267704958929 .01721361812651735 4.70391138941
59 -.571308554631924 5.05995822806939 .0172115663399475 4.69664497540871 -.57154
4218192655 5.39722433167658 .01720653715553765 4.69115092461679 -.57190411679794
3 5.73457599745665 .0172007315874688 4.68805074400443 -.572347710652586 6.071980
40468724 .0171966944414032 4.68749752118071 -.5726459 0 .0171959162801252 74 4 C
I16 index_map_offset0 0 1 dCCZ20 13 9 0 0 338 339 271 340 341 342 11 279 2 0 0 0
 0 0 0 0 0 0 0 0 81 2 338 172 343 1 0 339 0 0 0 344 81 2 339 176 345 1 338 340 0
 0 0 346 81 1 340 825 347 1 339 341 0 0 348 81 2 341 844 349 1 340 342 0 0 350 0
 81 2 342 901 351 1 341 11 0 0 0 352 81 2 11 904 353 1 342 2 0 0 0 0 80 2 353 35
4 355 9000 0 0 0 0 3 5 0 0 0 FFTFFFFFFFFFFF9 1 79 16 355 BODY_RECIPE_200180 2 35
1 356 357 9000 0 0 0 0 3 5 0 0 0 FFTFFFFFFFFFFF9 1 82 1 352 1 79 24 357 BODY_IN_
LIGHTWEIGHT_PERM80 2 349 358 359 8004 0 0 0 0 3 5 0 0 0 FFTFFFFFFFFFFF2 3 83 1 3
50 1 79 16 359 SDL/TYSA_DENSITY80 1 347 360 361 9000 1 1 1 1 1 1 1 1 0 FFTFFFFFF
FFFFF1 82 1 348 327946 79 10 361 BODY_MATCH80 2 345 362 363 9000 0 0 0 0 3 5 0 0
 0 FFTFFFFFFFFFFF9 1 82 1 346 53 79 30 363 LAST_BODY_MODIFYING_FEATURE_ID80 2 34
3 364 365 9000 0 0 0 0 3 5 0 0 0 FFTFFFFFFFFFFT9 1 82 1 344 156 79 19 365 ENT_TI
ME_STAMP_200180 2 10 366 367 9000 0 0 0 0 3 5 0 0 0 FFTFFFFFFFFFFF9 1 82 1 12 10
3 79 12 367 ATOM_ID_20011 0 
